<?xml version="1.0" encoding="utf-8"?>
<!-- Generator: Adobe Illustrator 18.1.1, SVG Export Plug-In . SVG Version: 6.00 Build 0)  -->
<svg version="1.1" id="Layer_1" xmlns="http://www.w3.org/2000/svg" xmlns:xlink="http://www.w3.org/1999/xlink" x="0px" y="0px"
	 viewBox="0 0 230.3 118.7" enable-background="new 0 0 230.3 118.7" xml:space="preserve">
<rect x="15.3" y="16.5" fill="#E7E7EB" width="197.1" height="87.3"/>
<g>
	<rect x="27.3" y="88.3" fill="#D3D3D3" width="40.1" height="6.5"/>
	<rect x="71.3" y="88.3" fill="#D3D3D3" width="59.1" height="6.5"/>
	<rect x="135" y="88.3" fill="#D3D3D3" width="24.4" height="6.5"/>
</g>
<rect x="53.4" y="51.2" fill="#777777" width="84.9" height="0.8"/>
<rect x="27.4" y="66.2" fill="#777777" width="119.1" height="0.8"/>
<path fill="#777777" d="M150.9,39.8v13h51v-13H150.9z M200.9,51.8h-49v-11h49V51.8z"/>
<path fill="#777777" d="M14.9,15.8v88h198v-88H14.9z M209.9,100.8h-192v-82h192V100.8z"/>
<rect x="27.5" y="42.2" fill="#D3D3D3" width="21.4" height="9.9"/>
<rect x="27.5" y="27.2" fill="#D3D3D3" width="53.6" height="9.9"/>
<text transform="matrix(1 0 0 1 141.4678 53.129)" font-family="'MyriadPro-Regular'" font-size="12">$</text>
<rect x="151.5" y="62.2" fill="#D3D3D3" width="16.7" height="5.3"/>
</svg>
